<svg width="900" height="908" viewBox="0 0 900 908" fill="none" xmlns="http://www.w3.org/2000/svg">
<rect width="900" height="908" fill="#1E1E1E"/>
<g id="Assets">
<rect width="1728" height="1280" transform="matrix(2 0 0 2 -2462 -100)" fill="#3C3939"/>
<g id="LOGO">
<rect id="Rectangle 5" width="900" height="900" rx="77.5862" fill="url(#paint0_radial_0_1)"/>
<g id="Subtract" filter="url(#filter0_d_0_1)">
<path d="M351.896 615.23C303.417 663.709 224.816 663.709 176.337 615.23L165.366 604.259C116.887 555.78 116.887 477.18 165.366 428.701L286.062 308.005L472.592 494.535L351.896 615.23ZM615.231 176.337C663.71 224.816 663.71 303.416 615.231 351.895L483.564 483.562L297.034 297.032L428.701 165.366C477.18 116.887 555.781 116.887 604.26 165.366L615.231 176.337Z" fill="white"/>
</g>
<g id="Subtract_2" filter="url(#filter1_d_0_1)">
<path d="M636.208 434.483C643.967 434.485 669.312 474.709 698.276 488.793C726.046 502.296 775.793 504.308 775.862 504.311V682.758C775.862 682.758 713.794 783.556 636.208 783.557C558.622 783.557 496.552 682.758 496.552 682.758V504.311C496.552 504.311 546.349 502.305 574.138 488.793C603.104 474.709 628.45 434.483 636.208 434.483ZM712.78 567.401C706.431 562.552 697.354 563.769 692.505 570.117L621.45 663.147L590.28 631.979C584.452 626.151 575.003 626.151 569.175 631.979L558.622 642.532L611.37 695.28C612.753 696.662 614.341 697.711 616.034 698.438C622.132 701.528 629.753 699.939 634.052 694.311L724.276 576.182L712.78 567.401Z" fill="white"/>
</g>
</g>
</g>
<defs>
<filter id="filter0_d_0_1" x="66.938" y="129.006" width="646.721" height="646.721" filterUnits="userSpaceOnUse" color-interpolation-filters="sRGB">
<feFlood flood-opacity="0" result="BackgroundImageFix"/>
<feColorMatrix in="SourceAlpha" type="matrix" values="0 0 0 0 0 0 0 0 0 0 0 0 0 0 0 0 0 0 127 0" result="hardAlpha"/>
<feOffset dy="31.0345"/>
<feGaussianBlur stdDeviation="15.5172"/>
<feComposite in2="hardAlpha" operator="out"/>
<feColorMatrix type="matrix" values="0 0 0 0 1 0 0 0 0 1 0 0 0 0 1 0 0 0 0.2 0"/>
<feBlend mode="normal" in2="BackgroundImageFix" result="effect1_dropShadow_0_1"/>
<feBlend mode="normal" in="SourceGraphic" in2="effect1_dropShadow_0_1" result="shape"/>
</filter>
<filter id="filter1_d_0_1" x="434.483" y="434.483" width="403.448" height="473.212" filterUnits="userSpaceOnUse" color-interpolation-filters="sRGB">
<feFlood flood-opacity="0" result="BackgroundImageFix"/>
<feColorMatrix in="SourceAlpha" type="matrix" values="0 0 0 0 0 0 0 0 0 0 0 0 0 0 0 0 0 0 127 0" result="hardAlpha"/>
<feOffset dy="31.0345"/>
<feGaussianBlur stdDeviation="15.5172"/>
<feComposite in2="hardAlpha" operator="out"/>
<feColorMatrix type="matrix" values="0 0 0 0 1 0 0 0 0 1 0 0 0 0 1 0 0 0 0.2 0"/>
<feBlend mode="normal" in2="BackgroundImageFix" result="effect1_dropShadow_0_1"/>
<feBlend mode="normal" in="SourceGraphic" in2="effect1_dropShadow_0_1" result="shape"/>
</filter>
<radialGradient id="paint0_radial_0_1" cx="0" cy="0" r="1" gradientUnits="userSpaceOnUse" gradientTransform="translate(310.345 318.103) rotate(45) scale(603.479 553.189)">
<stop stop-color="#52BCB9"/>
<stop offset="1" stop-color="#118779"/>
</radialGradient>
</defs>
</svg>
