<svg width="592" height="90" viewBox="0 0 592 90" fill="none" xmlns="http://www.w3.org/2000/svg">
<rect width="592" height="90" fill="#1E1E1E"/>
<g id="Assets">
<rect width="1728" height="1280" transform="matrix(2 0 0 2 -111.64 -447.12)" fill="#3C3939"/>
<path id="MEDISCAN" d="M37.8001 86.88L9.60011 11.76H9.12011C9.36011 14.24 9.56011 17.6 9.72011 21.84C9.88011 26 9.96011 30.36 9.96011 34.92V86.88H0.000107765V1.2H15.9601L42.3601 71.4H42.8401L69.7201 1.2H85.5601V86.88H74.8801V34.2C74.8801 30.04 74.9601 25.92 75.1201 21.84C75.3601 17.76 75.5601 14.44 75.7201 11.88H75.2401L46.6801 86.88H37.8001ZM156.747 86.88H108.867V1.2H156.747V10.68H119.667V37.44H154.587V46.8H119.667V77.4H156.747V86.88ZM244.187 43.2C244.187 57.68 240.227 68.6 232.307 75.96C224.467 83.24 213.507 86.88 199.427 86.88H175.547V1.2H201.947C210.587 1.2 218.067 2.8 224.387 6C230.707 9.2 235.587 13.92 239.027 20.16C242.467 26.32 244.187 34 244.187 43.2ZM232.787 43.56C232.787 32.12 229.947 23.76 224.267 18.48C218.667 13.12 210.707 10.44 200.387 10.44H186.347V77.64H197.987C221.187 77.64 232.787 66.28 232.787 43.56ZM287.323 86.88H256.363V80.64L266.443 78.36V9.84L256.363 7.44V1.2H287.323V7.44L277.243 9.84V78.36L287.323 80.64V86.88ZM352.467 63.96C352.467 71.56 349.707 77.48 344.187 81.72C338.667 85.96 331.227 88.08 321.867 88.08C317.067 88.08 312.627 87.72 308.547 87C304.467 86.28 301.067 85.28 298.347 84V73.68C301.227 74.96 304.787 76.12 309.027 77.16C313.347 78.2 317.787 78.72 322.347 78.72C328.747 78.72 333.547 77.48 336.747 75C340.027 72.52 341.667 69.16 341.667 64.92C341.667 62.12 341.067 59.76 339.867 57.84C338.667 55.92 336.587 54.16 333.627 52.56C330.747 50.88 326.707 49.12 321.507 47.28C314.227 44.64 308.707 41.4 304.947 37.56C301.267 33.72 299.427 28.48 299.427 21.84C299.427 17.28 300.587 13.4 302.907 10.2C305.227 6.92 308.427 4.4 312.507 2.64C316.667 0.880001 321.427 4.76837e-07 326.787 4.76837e-07C331.507 4.76837e-07 335.827 0.44 339.747 1.32C343.667 2.2 347.227 3.36 350.427 4.8L347.067 14.04C344.107 12.76 340.867 11.68 337.347 10.8C333.907 9.92 330.307 9.48 326.547 9.48C321.187 9.48 317.147 10.64 314.427 12.96C311.707 15.2 310.347 18.2 310.347 21.96C310.347 24.84 310.947 27.24 312.147 29.16C313.347 31.08 315.307 32.8 318.027 34.32C320.747 35.84 324.427 37.48 329.067 39.24C334.107 41.08 338.347 43.08 341.787 45.24C345.307 47.32 347.947 49.84 349.707 52.8C351.547 55.76 352.467 59.48 352.467 63.96ZM406.447 9.48C397.247 9.48 390.007 12.56 384.727 18.72C379.447 24.88 376.807 33.32 376.807 44.04C376.807 54.68 379.247 63.12 384.127 69.36C389.087 75.52 396.487 78.6 406.327 78.6C410.087 78.6 413.647 78.28 417.007 77.64C420.367 77 423.647 76.2 426.847 75.24V84.6C423.647 85.8 420.327 86.68 416.887 87.24C413.527 87.8 409.487 88.08 404.767 88.08C396.047 88.08 388.767 86.28 382.927 82.68C377.087 79.08 372.687 73.96 369.727 67.32C366.847 60.68 365.407 52.88 365.407 43.92C365.407 35.28 366.967 27.68 370.087 21.12C373.287 14.48 377.967 9.32 384.127 5.64C390.287 1.88 397.767 4.76837e-07 406.567 4.76837e-07C415.607 4.76837e-07 423.487 1.68 430.207 5.04L425.887 14.16C423.247 12.96 420.287 11.88 417.007 10.92C413.807 9.96 410.287 9.48 406.447 9.48ZM499.307 86.88L488.987 60.36H455.027L444.827 86.88H433.907L467.387 0.840004H477.107L510.467 86.88H499.307ZM476.147 24.84C475.907 24.2 475.507 23.04 474.947 21.36C474.387 19.68 473.827 17.96 473.267 16.2C472.787 14.36 472.387 12.96 472.067 12C471.507 14.48 470.867 16.92 470.147 19.32C469.427 21.64 468.827 23.48 468.347 24.84L458.627 50.76H485.747L476.147 24.84ZM590.108 86.88H577.508L531.668 15.72H531.188C531.348 18.52 531.548 22 531.788 26.16C532.028 30.32 532.148 34.6 532.148 39V86.88H522.188V1.2H534.668L580.388 72.12H580.868C580.788 70.84 580.668 68.92 580.508 66.36C580.428 63.8 580.308 61 580.148 57.96C580.068 54.92 580.028 52.12 580.028 49.56V1.2H590.108V86.88Z" fill="#156860"/>
</g>
</svg>
