<svg width="180" height="180" viewBox="0 0 180 180" fill="none" xmlns="http://www.w3.org/2000/svg">
<rect width="180" height="180" fill="#1E1E1E"/>
<g id="Assets">
<rect width="1728" height="1280" transform="matrix(2 0 0 2 -2930 -1242)" fill="#3C3939"/>
<g id="icons">
<g id="Expiring Soon Icon">
<rect width="90" height="90" transform="scale(2)" fill="white"/>
<path id="Rectangle 37" d="M12 66H168V162C168 168.627 162.627 174 156 174H24C17.3726 174 12 168.627 12 162V66Z" fill="#CC3E3C"/>
<g id="1">
<mask id="path-2-outside-1_0_1" maskUnits="userSpaceOnUse" x="72" y="92" width="26" height="50" fill="black">
<rect fill="white" x="72" y="92" width="26" height="50"/>
<path d="M94.132 138H88.972V108.06C88.972 106.34 88.992 104.96 89.032 103.92C89.072 102.88 89.132 101.8 89.212 100.68C88.572 101.32 87.992 101.86 87.472 102.3C86.952 102.74 86.292 103.3 85.492 103.98L80.932 107.7L78.172 104.16L89.752 95.16H94.132V138Z"/>
</mask>
<path d="M94.132 138H88.972V108.06C88.972 106.34 88.992 104.96 89.032 103.92C89.072 102.88 89.132 101.8 89.212 100.68C88.572 101.32 87.992 101.86 87.472 102.3C86.952 102.74 86.292 103.3 85.492 103.98L80.932 107.7L78.172 104.16L89.752 95.16H94.132V138Z" fill="white"/>
<path d="M94.132 138V141H97.132V138H94.132ZM88.972 138H85.972V141H88.972V138ZM89.032 103.92L86.0342 103.805V103.805L89.032 103.92ZM89.212 100.68L92.2044 100.894L92.7774 92.872L87.0907 98.5587L89.212 100.68ZM87.472 102.3L89.4099 104.59L89.4099 104.59L87.472 102.3ZM85.492 103.98L87.3884 106.305L87.4119 106.285L87.435 106.266L85.492 103.98ZM80.932 107.7L78.5661 109.545L80.4519 111.963L82.8284 110.025L80.932 107.7ZM78.172 104.16L76.3311 101.791L73.9587 103.635L75.8061 106.005L78.172 104.16ZM89.752 95.16V92.16H88.7233L87.9111 92.7913L89.752 95.16ZM94.132 95.16H97.132V92.16H94.132V95.16ZM94.132 138V135H88.972V138V141H94.132V138ZM88.972 138H91.972V108.06H88.972H85.972V138H88.972ZM88.972 108.06H91.972C91.972 106.357 91.9919 105.02 92.0298 104.035L89.032 103.92L86.0342 103.805C85.9921 104.9 85.972 106.323 85.972 108.06H88.972ZM89.032 103.92L92.0298 104.035C92.0685 103.031 92.1266 101.983 92.2044 100.894L89.212 100.68L86.2197 100.466C86.1375 101.617 86.0756 102.729 86.0342 103.805L89.032 103.92ZM89.212 100.68L87.0907 98.5587C86.4917 99.1577 85.974 99.6377 85.5342 100.01L87.472 102.3L89.4099 104.59C90.01 104.082 90.6523 103.482 91.3334 102.801L89.212 100.68ZM87.472 102.3L85.5342 100.01C85.0118 100.452 84.35 101.013 83.5491 101.694L85.492 103.98L87.435 106.266C88.2341 105.587 88.8922 105.028 89.4099 104.59L87.472 102.3ZM85.492 103.98L83.5957 101.655L79.0357 105.375L80.932 107.7L82.8284 110.025L87.3884 106.305L85.492 103.98ZM80.932 107.7L83.2979 105.855L80.5379 102.315L78.172 104.16L75.8061 106.005L78.5661 109.545L80.932 107.7ZM78.172 104.16L80.013 106.529L91.593 97.5287L89.752 95.16L87.9111 92.7913L76.3311 101.791L78.172 104.16ZM89.752 95.16V98.16H94.132V95.16V92.16H89.752V95.16ZM94.132 95.16H91.132V138H94.132H97.132V95.16H94.132Z" fill="white" mask="url(#path-2-outside-1_0_1)"/>
</g>
<path id="Union" d="M57 0C61.9706 0 66 4.02944 66 9V12H114V9C114 4.02944 118.029 0 123 0H129C133.971 0 138 4.02944 138 9V12H156C162.627 12 168 17.3726 168 24V60H12V24C12 17.3726 17.3726 12 24 12H42V9C42 4.02944 46.0294 0 51 0H57Z" fill="#CC3E3C"/>
<rect id="Rectangle 41" x="42" y="24" width="24" height="24" rx="6" fill="white"/>
<rect id="Rectangle 42" x="114" y="24" width="24" height="24" rx="6" fill="white"/>
</g>
</g>
</g>
</svg>
