<svg width="180" height="180" viewBox="0 0 180 180" fill="none" xmlns="http://www.w3.org/2000/svg">
<rect width="180" height="180" fill="#1E1E1E"/>
<g id="Assets">
<rect width="1728" height="1280" transform="matrix(2 0 0 2 -130 -1242)" fill="#3C3939"/>
<g id="icons">
<g id="HOME Icon">
<rect width="90" height="90" transform="scale(2)" fill="white"/>
<g id="HOME Icon_2">
<path id="Union" d="M85.8292 10.4657C88.2459 8.24966 91.9555 8.2498 94.3722 10.4657L171.183 80.8973C175.431 84.7928 172.675 91.8775 166.911 91.8778H153.306V158.243C153.306 165.224 147.647 170.886 140.665 170.886H112.224C110.478 170.886 109.062 169.471 109.062 167.725V117.159C109.062 115.414 107.647 113.999 105.901 113.999H74.2999C72.5545 113.999 71.1378 115.414 71.1378 117.159V167.725C71.1376 169.471 69.7229 170.886 67.9777 170.886H39.5343C32.5535 170.885 26.8938 165.224 26.8937 158.243V91.8778H13.2902C7.52679 91.8771 4.77066 84.7927 9.01868 80.8973L85.8292 10.4657Z" fill="#156860"/>
</g>
</g>
</g>
</g>
</svg>
