<svg width="180" height="180" viewBox="0 0 180 180" fill="none" xmlns="http://www.w3.org/2000/svg">
<rect width="180" height="180" fill="#1E1E1E"/>
<g id="Assets">
<rect width="1728" height="1280" transform="matrix(2 0 0 2 -1530 -1242)" fill="#3C3939"/>
<g id="icons">
<g id="NOTIF Icon">
<rect width="90" height="90" transform="scale(2)" fill="white"/>
<g id="Group 4">
<circle id="Ellipse 5" cx="89" cy="151" r="20.5" fill="white" stroke="#125E52" stroke-width="5"/>
<rect id="Rectangle 25" x="79" y="15" width="18" height="24" rx="3" fill="#125E52" stroke="#125E52" stroke-width="6"/>
<g id="Union">
<mask id="path-3-inside-1_0_1" fill="white">
<path d="M87.8066 30C135.806 30.0002 135.807 81 135.807 81V110.607L157.176 133.947C160.7 137.796 157.971 144 152.752 144H24.0117C18.7924 144 16.0628 137.796 19.5879 133.947L39.8066 111.867V81C39.8066 81 39.8066 30 87.8066 30Z"/>
</mask>
<path d="M87.8066 30C135.806 30.0002 135.807 81 135.807 81V110.607L157.176 133.947C160.7 137.796 157.971 144 152.752 144H24.0117C18.7924 144 16.0628 137.796 19.5879 133.947L39.8066 111.867V81C39.8066 81 39.8066 30 87.8066 30Z" fill="white"/>
<path d="M87.8066 30L87.8067 18H87.8066V30ZM135.807 81H147.807V80.9999L135.807 81ZM135.807 110.607H123.807V115.271L126.956 118.711L135.807 110.607ZM157.176 133.947L148.325 142.051L148.325 142.051L157.176 133.947ZM152.752 144V156H152.753L152.752 144ZM24.0117 144L24.0116 156H24.0117V144ZM19.5879 133.947L28.4374 142.052L28.438 142.051L19.5879 133.947ZM39.8066 111.867L48.6567 119.971L51.8066 116.531V111.867H39.8066ZM39.8066 81H27.8066V81H39.8066ZM87.8066 30L87.8065 42C97.5516 42 104.078 44.5436 108.62 47.7611C113.275 51.0579 116.59 55.5985 118.949 60.6097C121.321 65.6507 122.567 70.8469 123.202 74.891C123.514 76.8833 123.666 78.5194 123.74 79.6136C123.777 80.1587 123.793 80.5633 123.801 80.8036C123.805 80.9236 123.806 81.002 123.807 81.0359C123.807 81.0528 123.807 81.0586 123.807 81.0527C123.807 81.0498 123.807 81.044 123.807 81.0353C123.807 81.0309 123.807 81.0258 123.807 81.0199C123.807 81.017 123.807 81.012 123.807 81.0106C123.807 81.0054 123.807 81.0001 135.807 81C147.807 80.9999 147.807 80.9942 147.807 80.9883C147.807 80.986 147.807 80.9799 147.807 80.9754C147.807 80.9665 147.807 80.9567 147.807 80.9462C147.806 80.925 147.806 80.9007 147.806 80.8733C147.806 80.8185 147.805 80.751 147.804 80.6715C147.801 80.5124 147.797 80.3044 147.789 80.0509C147.773 79.5441 147.743 78.8531 147.686 78.0036C147.572 76.3087 147.349 73.9605 146.912 71.1716C146.046 65.6533 144.292 58.0995 140.664 50.3905C137.022 42.6517 131.338 34.4423 122.493 28.1766C113.535 21.8315 102.061 18.0001 87.8067 18L87.8066 30ZM135.807 81H123.807V110.607H135.807H147.807V81H135.807ZM135.807 110.607L126.956 118.711L148.325 142.051L157.176 133.947L166.026 125.844L144.657 102.504L135.807 110.607ZM157.176 133.947L148.325 142.051C144.804 138.206 147.527 132 152.751 132L152.752 144L152.753 156C168.414 155.999 176.596 137.387 166.026 125.843L157.176 133.947ZM152.752 144V132H24.0117V144V156H152.752V144ZM24.0117 144L24.0118 132C29.2356 132 31.9594 138.206 28.4374 142.052L19.5879 133.947L10.7383 125.843C0.166218 137.386 8.34922 156 24.0116 156L24.0117 144ZM19.5879 133.947L28.438 142.051L48.6567 119.971L39.8066 111.867L30.9565 103.763L10.7378 125.843L19.5879 133.947ZM39.8066 111.867H51.8066V81H39.8066H27.8066V111.867H39.8066ZM39.8066 81C51.8066 81 51.8066 81.0053 51.8066 81.0105C51.8066 81.0119 51.8066 81.0169 51.8066 81.0198C51.8066 81.0257 51.8066 81.0308 51.8065 81.0352C51.8065 81.0439 51.8065 81.0498 51.8065 81.0527C51.8064 81.0585 51.8064 81.0528 51.8067 81.0358C51.8072 81.002 51.8087 80.9235 51.8124 80.8035C51.82 80.5632 51.8367 80.1586 51.8733 79.6135C51.9469 78.5193 52.0991 76.8832 52.4116 74.8909C53.046 70.8467 54.2922 65.6505 56.6644 60.6096C59.0226 55.5984 62.3385 51.0578 66.9928 47.761C71.5351 44.5436 78.0614 42 87.8066 42V30V18C73.5518 18 62.0781 21.8314 53.1204 28.1765C44.2747 34.4422 38.5906 42.6516 34.9488 50.3904C31.321 58.0995 29.5672 65.6533 28.7016 71.1716C28.2641 73.9605 28.0413 76.3088 27.9274 78.0037C27.8703 78.8531 27.8401 79.5442 27.8242 80.051C27.8163 80.3045 27.8119 80.5124 27.8095 80.6716C27.8082 80.7511 27.8075 80.8185 27.8071 80.8734C27.8069 80.9008 27.8068 80.9251 27.8067 80.9462C27.8067 80.9568 27.8066 80.9666 27.8066 80.9755C27.8066 80.98 27.8066 80.9861 27.8066 80.9884C27.8066 80.9943 27.8066 81 39.8066 81Z" fill="#125E52" mask="url(#path-3-inside-1_0_1)"/>
</g>
</g>
</g>
</g>
</g>
</svg>
