<svg width="180" height="180" viewBox="0 0 180 180" fill="none" xmlns="http://www.w3.org/2000/svg">
<rect width="180" height="180" fill="#1E1E1E"/>
<g id="Assets">
<rect width="1728" height="1280" transform="matrix(2 0 0 2 -970 -1242)" fill="#3C3939"/>
<g id="icons">
<g id="REMINDERS Icon">
<rect width="90" height="90" transform="scale(2)" fill="white"/>
<g id="REMINDERS Icon_2">
<path id="Ellipse 2" d="M89.3286 174.657C136.454 174.657 174.657 136.454 174.657 89.3286C174.657 42.2029 136.454 4 89.3286 4C42.2029 4 4 42.2029 4 89.3286C4 136.454 42.2029 174.657 89.3286 174.657Z" fill="#156860"/>
<path id="Union" d="M84.5879 35.6031C87.2059 35.6031 89.328 37.7254 89.3281 40.3434V92.1324L123.416 111.613C125.689 112.912 126.478 115.807 125.18 118.08C123.881 120.353 120.986 121.142 118.713 119.843L82.6992 99.2653C81.5831 98.6274 80.8272 97.6037 80.498 96.4586C80.0872 95.7567 79.8478 94.9419 79.8477 94.0699V40.3434C79.8478 37.7255 81.97 35.6033 84.5879 35.6031Z" fill="white"/>
</g>
</g>
</g>
</g>
</svg>
