<svg width="180" height="180" viewBox="0 0 180 180" fill="none" xmlns="http://www.w3.org/2000/svg">
<rect width="180" height="180" fill="#1E1E1E"/>
<g id="Assets">
<rect width="1728" height="1280" transform="matrix(2 0 0 2 -690 -1242)" fill="#3C3939"/>
<g id="icons">
<g id="VAULT Icon">
<rect width="90" height="90" transform="scale(2)" fill="white"/>
<g id="VAULT Icon_2">
<path id="Rectangle 14" d="M6.46167 25.75C6.46167 17.0515 13.5132 10 22.2117 10H157.523C166.221 10 173.273 17.0515 173.273 25.75V42.6519C173.273 43.8541 172.298 44.8287 171.096 44.8287H8.63846C7.43625 44.8287 6.46167 43.8541 6.46167 42.6519V25.75Z" fill="#156860"/>
<path id="Subtract" d="M171.361 52.1611C172.818 52.1613 173.999 53.3425 174 54.7998V142.044C174 156.541 162.247 168.294 147.75 168.294H32.2498C17.7524 168.294 5.99976 156.541 5.99976 142.044V54.7998C6.00015 53.3428 7.18142 52.1617 8.63843 52.1611H171.361ZM63.7498 90.8721C60.8505 90.8723 58.4998 93.2227 58.4998 96.1221V107.743C58.4999 110.642 60.8505 112.993 63.7498 112.993H116.25C119.149 112.993 121.5 110.643 121.5 107.743V96.1221C121.5 93.2226 119.149 90.8721 116.25 90.8721H63.7498Z" fill="#156860"/>
</g>
</g>
</g>
</g>
</svg>
