<svg width="180" height="180" viewBox="0 0 180 180" fill="none" xmlns="http://www.w3.org/2000/svg">
<rect width="180" height="180" fill="#1E1E1E"/>
<g id="Assets">
<rect width="1728" height="1280" transform="matrix(2 0 0 2 -2370 -1242)" fill="#3C3939"/>
<g id="icons">
<g id="Verified Icon">
<rect width="90" height="90" transform="scale(2)" fill="white"/>
<g id="Group 5">
<path id="Rectangle 33" d="M20.5713 33.4286C20.5713 33.4286 42.9862 26.7608 56.5713 20.5714C71.3064 13.8581 89.9999 0 92.5713 0C95.1427 0 113.836 13.8581 128.571 20.5714C142.156 26.7608 164.571 33.4286 164.571 33.4286V105.429C156.857 144 105.428 177.429 92.5713 177.429C79.7141 177.429 28.2853 144 20.5713 105.429V33.4286Z" fill="#309653"/>
<path id="Check" d="M127.302 63.5976C129.812 61.0871 133.883 61.0871 136.394 63.5976C138.904 66.1082 138.904 70.1791 136.394 72.6894L91.4405 117.641C90.1525 118.928 88.4544 119.549 86.7667 119.516C85.0784 119.549 83.3792 118.929 82.0909 117.641L58.4542 94.0039C55.9437 91.4934 55.9437 87.4226 58.4542 84.9121C60.9647 82.4015 65.0354 82.4015 67.546 84.9121L86.7667 104.133L127.302 63.5976Z" fill="white"/>
</g>
</g>
</g>
</g>
</svg>
